<svg viewBox="0 0 1200 820" xmlns="http://www.w3.org/2000/svg" font-family="Inter, system-ui, sans-serif">
  <defs>
    <marker id="arrow" markerWidth="10" markerHeight="7" refX="9" refY="3.5" orient="auto">
      <polygon points="0 0, 10 3.5, 0 7" fill="#C9A84C" opacity="0.8"/>
    </marker>
    <marker id="arrow-null" markerWidth="10" markerHeight="7" refX="9" refY="3.5" orient="auto">
      <polygon points="0 0, 10 3.5, 0 7" fill="#7A7470" opacity="0.7"/>
    </marker>
    <filter id="shadow" x="-5%" y="-5%" width="110%" height="110%">
      <feDropShadow dx="0" dy="2" stdDeviation="4" flood-color="#000" flood-opacity="0.4"/>
    </filter>
    <!-- Gradiente fundo -->
    <linearGradient id="bgGrad" x1="0" y1="0" x2="1" y2="1">
      <stop offset="0%" stop-color="#0f0f0f"/>
      <stop offset="100%" stop-color="#161616"/>
    </linearGradient>
    <!-- Gradiente header tabela -->
    <linearGradient id="headerGrad" x1="0" y1="0" x2="0" y2="1">
      <stop offset="0%" stop-color="#2a2218"/>
      <stop offset="100%" stop-color="#1e1a12"/>
    </linearGradient>
    <linearGradient id="headerGradBlue" x1="0" y1="0" x2="0" y2="1">
      <stop offset="0%" stop-color="#152030"/>
      <stop offset="100%" stop-color="#0e1820"/>
    </linearGradient>
  </defs>

  <!-- Fundo -->
  <rect width="1200" height="820" fill="url(#bgGrad)"/>

  <!-- Grade decorativa sutil -->
  <pattern id="grid" width="40" height="40" patternUnits="userSpaceOnUse">
    <path d="M 40 0 L 0 0 0 40" fill="none" stroke="#1e1e1e" stroke-width="0.5"/>
  </pattern>
  <rect width="1200" height="820" fill="url(#grid)" opacity="0.5"/>

  <!-- Título -->
  <text x="600" y="38" text-anchor="middle" font-size="20" font-weight="700" fill="#C9A84C" font-family="Georgia, serif" letter-spacing="2">DER — Sistema Margôr</text>
  <text x="600" y="56" text-anchor="middle" font-size="11" fill="#7A7470" letter-spacing="1">Diagrama Entidade-Relacionamento</text>
  <line x1="200" y1="63" x2="1000" y2="63" stroke="#C9A84C" stroke-width="0.5" opacity="0.3"/>

  <!-- ═══════════════════════════════════════
       TABELA: usuarios (topo esquerda)
  ═══════════════════════════════════════ -->
  <g filter="url(#shadow)">
    <rect x="30" y="80" width="200" height="215" rx="10" fill="#1a1a1a" stroke="#C9A84C" stroke-width="1.5"/>
    <rect x="30" y="80" width="200" height="36" rx="10" fill="url(#headerGrad)"/>
    <rect x="30" y="103" width="200" height="13" fill="url(#headerGrad)"/>
    <text x="130" y="103" text-anchor="middle" font-size="13" font-weight="700" fill="#C9A84C">usuarios</text>
    <line x1="30" y1="116" x2="230" y2="116" stroke="#C9A84C" stroke-width="0.8" opacity="0.4"/>
    <!-- PK -->
    <text x="44" y="133" font-size="10" fill="#C9A84C" font-weight="600">🔑</text>
    <text x="56" y="133" font-size="10" fill="#e0b06a">id</text>
    <text x="175" y="133" font-size="9" fill="#555" text-anchor="end">INT PK AI</text>
    <line x1="42" y1="138" x2="218" y2="138" stroke="#2e2e2e" stroke-width="0.5"/>
    <text x="44" y="152" font-size="10" fill="#C8BFA8">nome</text>
    <text x="175" y="152" font-size="9" fill="#555" text-anchor="end">VARCHAR(100)</text>
    <line x1="42" y1="157" x2="218" y2="157" stroke="#2e2e2e" stroke-width="0.5"/>
    <text x="44" y="171" font-size="10" fill="#C8BFA8">email</text>
    <text x="175" y="171" font-size="9" fill="#555" text-anchor="end">VARCHAR(150) UQ</text>
    <line x1="42" y1="176" x2="218" y2="176" stroke="#2e2e2e" stroke-width="0.5"/>
    <text x="44" y="190" font-size="10" fill="#C8BFA8">senha</text>
    <text x="175" y="190" font-size="9" fill="#555" text-anchor="end">VARCHAR(255)</text>
    <line x1="42" y1="195" x2="218" y2="195" stroke="#2e2e2e" stroke-width="0.5"/>
    <text x="44" y="209" font-size="10" fill="#C8BFA8">perfil</text>
    <text x="175" y="209" font-size="9" fill="#555" text-anchor="end">ENUM</text>
    <line x1="42" y1="214" x2="218" y2="214" stroke="#2e2e2e" stroke-width="0.5"/>
    <text x="44" y="228" font-size="10" fill="#C8BFA8">status</text>
    <text x="175" y="228" font-size="9" fill="#555" text-anchor="end">ENUM</text>
    <line x1="42" y1="233" x2="218" y2="233" stroke="#2e2e2e" stroke-width="0.5"/>
    <text x="44" y="247" font-size="10" fill="#7A7470">criado_em</text>
    <text x="175" y="247" font-size="9" fill="#555" text-anchor="end">TIMESTAMP</text>
    <line x1="42" y1="252" x2="218" y2="252" stroke="#2e2e2e" stroke-width="0.5"/>
    <!-- ENUM hint -->
    <text x="130" y="268" text-anchor="middle" font-size="8" fill="#5A4A30">Adm · Gerente · Garçom · Coz · Caixa</text>
    <text x="130" y="279" text-anchor="middle" font-size="8" fill="#5A4A30">status: Ativo · Inativo</text>
    <text x="130" y="290" text-anchor="middle" font-size="8" fill="#5A4A30">perfil: Administrador · Gerente · Garçom</text>
  </g>

  <!-- ═══════════════════════════════════════
       TABELA: clientes (topo centro)
  ═══════════════════════════════════════ -->
  <g filter="url(#shadow)">
    <rect x="290" y="80" width="210" height="270" rx="10" fill="#1a1a1a" stroke="#3D6B8E" stroke-width="1.5"/>
    <rect x="290" y="80" width="210" height="36" rx="10" fill="url(#headerGradBlue)"/>
    <rect x="290" y="103" width="210" height="13" fill="url(#headerGradBlue)"/>
    <text x="395" y="103" text-anchor="middle" font-size="13" font-weight="700" fill="#7bafd4">clientes</text>
    <line x1="290" y1="116" x2="500" y2="116" stroke="#3D6B8E" stroke-width="0.8" opacity="0.5"/>
    <text x="304" y="133" font-size="10" fill="#C9A84C" font-weight="600">🔑</text>
    <text x="316" y="133" font-size="10" fill="#e0b06a">id</text>
    <text x="490" y="133" font-size="9" fill="#555" text-anchor="end">INT PK AI</text>
    <line x1="302" y1="138" x2="488" y2="138" stroke="#2e2e2e" stroke-width="0.5"/>
    <text x="304" y="152" font-size="10" fill="#C8BFA8">nome</text>
    <text x="490" y="152" font-size="9" fill="#555" text-anchor="end">VARCHAR(120)</text>
    <line x1="302" y1="157" x2="488" y2="157" stroke="#2e2e2e" stroke-width="0.5"/>
    <text x="304" y="171" font-size="10" fill="#C8BFA8">email</text>
    <text x="490" y="171" font-size="9" fill="#555" text-anchor="end">VARCHAR(150) UQ</text>
    <line x1="302" y1="176" x2="488" y2="176" stroke="#2e2e2e" stroke-width="0.5"/>
    <text x="304" y="190" font-size="10" fill="#C8BFA8">senha</text>
    <text x="490" y="190" font-size="9" fill="#555" text-anchor="end">VARCHAR(255)</text>
    <line x1="302" y1="195" x2="488" y2="195" stroke="#2e2e2e" stroke-width="0.5"/>
    <text x="304" y="209" font-size="10" fill="#C8BFA8">telefone</text>
    <text x="490" y="209" font-size="9" fill="#555" text-anchor="end">VARCHAR(20)</text>
    <line x1="302" y1="214" x2="488" y2="214" stroke="#2e2e2e" stroke-width="0.5"/>
    <text x="304" y="228" font-size="10" fill="#C8BFA8">cpf</text>
    <text x="490" y="228" font-size="9" fill="#555" text-anchor="end">VARCHAR(14) UQ</text>
    <line x1="302" y1="233" x2="488" y2="233" stroke="#2e2e2e" stroke-width="0.5"/>
    <text x="304" y="247" font-size="10" fill="#C8BFA8">data_nascimento</text>
    <text x="490" y="247" font-size="9" fill="#555" text-anchor="end">DATE</text>
    <line x1="302" y1="252" x2="488" y2="252" stroke="#2e2e2e" stroke-width="0.5"/>
    <text x="304" y="266" font-size="10" fill="#C8BFA8">endereco</text>
    <text x="490" y="266" font-size="9" fill="#555" text-anchor="end">VARCHAR(200)</text>
    <line x1="302" y1="271" x2="488" y2="271" stroke="#2e2e2e" stroke-width="0.5"/>
    <text x="304" y="285" font-size="10" fill="#7A7470">cidade / estado</text>
    <text x="490" y="285" font-size="9" fill="#555" text-anchor="end">VARCHAR / CHAR(2)</text>
    <line x1="302" y1="290" x2="488" y2="290" stroke="#2e2e2e" stroke-width="0.5"/>
    <text x="304" y="304" font-size="10" fill="#7A7470">criado_em</text>
    <text x="490" y="304" font-size="9" fill="#555" text-anchor="end">TIMESTAMP</text>
    <text x="395" y="340" text-anchor="middle" font-size="8" fill="#2a3a4a">NULL = cadastro via reserva sem conta</text>
  </g>

  <!-- ═══════════════════════════════════════
       TABELA: categorias_prato (topo direita)
  ═══════════════════════════════════════ -->
  <g filter="url(#shadow)">
    <rect x="820" y="80" width="185" height="110" rx="10" fill="#1a1a1a" stroke="#4A7C59" stroke-width="1.5"/>
    <rect x="820" y="80" width="185" height="36" rx="10" fill="#121e16"/>
    <rect x="820" y="103" width="185" height="13" fill="#121e16"/>
    <text x="912" y="103" text-anchor="middle" font-size="13" font-weight="700" fill="#7bc492">categorias_prato</text>
    <line x1="820" y1="116" x2="1005" y2="116" stroke="#4A7C59" stroke-width="0.8" opacity="0.5"/>
    <text x="834" y="133" font-size="10" fill="#C9A84C">🔑</text>
    <text x="846" y="133" font-size="10" fill="#e0b06a">id</text>
    <text x="995" y="133" font-size="9" fill="#555" text-anchor="end">INT PK AI</text>
    <line x1="832" y1="138" x2="993" y2="138" stroke="#2e2e2e" stroke-width="0.5"/>
    <text x="834" y="155" font-size="10" fill="#C8BFA8">nome</text>
    <text x="995" y="155" font-size="9" fill="#555" text-anchor="end">VARCHAR(60) UQ</text>
    <line x1="832" y1="160" x2="993" y2="160" stroke="#2e2e2e" stroke-width="0.5"/>
    <text x="912" y="178" text-anchor="middle" font-size="8" fill="#2a4030">Entradas · Pratos · Sobremesas</text>
    <text x="912" y="188" text-anchor="middle" font-size="8" fill="#2a4030">Bebidas · Lanches</text>
  </g>

  <!-- ═══════════════════════════════════════
       TABELA: pratos (direita centro)
  ═══════════════════════════════════════ -->
  <g filter="url(#shadow)">
    <rect x="820" y="230" width="185" height="235" rx="10" fill="#1a1a1a" stroke="#4A7C59" stroke-width="1.5"/>
    <rect x="820" y="230" width="185" height="36" rx="10" fill="#121e16"/>
    <rect x="820" y="253" width="185" height="13" fill="#121e16"/>
    <text x="912" y="253" text-anchor="middle" font-size="13" font-weight="700" fill="#7bc492">pratos</text>
    <line x1="820" y1="266" x2="1005" y2="266" stroke="#4A7C59" stroke-width="0.8" opacity="0.5"/>
    <text x="834" y="283" font-size="10" fill="#C9A84C">🔑</text>
    <text x="846" y="283" font-size="10" fill="#e0b06a">id</text>
    <text x="995" y="283" font-size="9" fill="#555" text-anchor="end">INT PK AI</text>
    <line x1="832" y1="288" x2="993" y2="288" stroke="#2e2e2e" stroke-width="0.5"/>
    <text x="834" y="302" font-size="10" fill="#C8BFA8">nome</text>
    <text x="995" y="302" font-size="9" fill="#555" text-anchor="end">VARCHAR(150) UQ</text>
    <line x1="832" y1="307" x2="993" y2="307" stroke="#2e2e2e" stroke-width="0.5"/>
    <text x="834" y="321" font-size="10" fill="#C8BFA8">descricao</text>
    <text x="995" y="321" font-size="9" fill="#555" text-anchor="end">TEXT</text>
    <line x1="832" y1="326" x2="993" y2="326" stroke="#2e2e2e" stroke-width="0.5"/>
    <text x="834" y="340" font-size="10" fill="#C8BFA8">preco</text>
    <text x="995" y="340" font-size="9" fill="#555" text-anchor="end">DECIMAL(10,2)</text>
    <line x1="832" y1="345" x2="993" y2="345" stroke="#2e2e2e" stroke-width="0.5"/>
    <text x="834" y="359" font-size="10" fill="#C8BFA8">tempo_minutos</text>
    <text x="995" y="359" font-size="9" fill="#555" text-anchor="end">SMALLINT</text>
    <line x1="832" y1="364" x2="993" y2="364" stroke="#2e2e2e" stroke-width="0.5"/>
    <!-- FK -->
    <text x="834" y="378" font-size="10" fill="#C9A84C">🔗</text>
    <text x="846" y="378" font-size="10" fill="#e0b06a">categoria_id</text>
    <text x="995" y="378" font-size="9" fill="#555" text-anchor="end">INT FK</text>
    <line x1="832" y1="383" x2="993" y2="383" stroke="#2e2e2e" stroke-width="0.5"/>
    <text x="834" y="397" font-size="10" fill="#C8BFA8">status</text>
    <text x="995" y="397" font-size="9" fill="#555" text-anchor="end">ENUM</text>
    <line x1="832" y1="402" x2="993" y2="402" stroke="#2e2e2e" stroke-width="0.5"/>
    <text x="834" y="416" font-size="10" fill="#7A7470">criado_em</text>
    <text x="995" y="416" font-size="9" fill="#555" text-anchor="end">TIMESTAMP</text>
    <line x1="832" y1="421" x2="993" y2="421" stroke="#2e2e2e" stroke-width="0.5"/>
    <text x="912" y="440" text-anchor="middle" font-size="8" fill="#2a4030">RESTRICT on delete · Disponível/Indisponível</text>
    <text x="912" y="452" text-anchor="middle" font-size="8" fill="#2a4030">ON DELETE RESTRICT (categoria)</text>
  </g>

  <!-- ═══════════════════════════════════════
       TABELA: reservas (centro)
  ═══════════════════════════════════════ -->
  <g filter="url(#shadow)">
    <rect x="290" y="420" width="210" height="270" rx="10" fill="#1a1a1a" stroke="#C9913A" stroke-width="1.5"/>
    <rect x="290" y="420" width="210" height="36" rx="10" fill="#1e1508"/>
    <rect x="290" y="443" width="210" height="13" fill="#1e1508"/>
    <text x="395" y="443" text-anchor="middle" font-size="13" font-weight="700" fill="#e0b06a">reservas</text>
    <line x1="290" y1="456" x2="500" y2="456" stroke="#C9913A" stroke-width="0.8" opacity="0.5"/>
    <text x="304" y="473" font-size="10" fill="#C9A84C">🔑</text>
    <text x="316" y="473" font-size="10" fill="#e0b06a">id</text>
    <text x="490" y="473" font-size="9" fill="#555" text-anchor="end">INT PK AI</text>
    <line x1="302" y1="478" x2="488" y2="478" stroke="#2e2e2e" stroke-width="0.5"/>
    <text x="304" y="492" font-size="10" fill="#C8BFA8">nome</text>
    <text x="490" y="492" font-size="9" fill="#555" text-anchor="end">VARCHAR(120)</text>
    <line x1="302" y1="497" x2="488" y2="497" stroke="#2e2e2e" stroke-width="0.5"/>
    <text x="304" y="511" font-size="10" fill="#C8BFA8">data_reserva</text>
    <text x="490" y="511" font-size="9" fill="#555" text-anchor="end">DATE</text>
    <line x1="302" y1="516" x2="488" y2="516" stroke="#2e2e2e" stroke-width="0.5"/>
    <text x="304" y="530" font-size="10" fill="#C8BFA8">hora_reserva</text>
    <text x="490" y="530" font-size="9" fill="#555" text-anchor="end">TIME</text>
    <line x1="302" y1="535" x2="488" y2="535" stroke="#2e2e2e" stroke-width="0.5"/>
    <text x="304" y="549" font-size="10" fill="#C8BFA8">pessoas</text>
    <text x="490" y="549" font-size="9" fill="#555" text-anchor="end">TINYINT</text>
    <line x1="302" y1="554" x2="488" y2="554" stroke="#2e2e2e" stroke-width="0.5"/>
    <text x="304" y="568" font-size="10" fill="#C8BFA8">status</text>
    <text x="490" y="568" font-size="9" fill="#555" text-anchor="end">ENUM</text>
    <line x1="302" y1="573" x2="488" y2="573" stroke="#2e2e2e" stroke-width="0.5"/>
    <text x="304" y="587" font-size="10" fill="#C8BFA8">origem</text>
    <text x="490" y="587" font-size="9" fill="#555" text-anchor="end">ENUM</text>
    <line x1="302" y1="592" x2="488" y2="592" stroke="#2e2e2e" stroke-width="0.5"/>
    <text x="304" y="606" font-size="10" fill="#C9A84C">🔗</text>
    <text x="316" y="606" font-size="10" fill="#e0b06a">cliente_id</text>
    <text x="490" y="606" font-size="9" fill="#555" text-anchor="end">INT FK NULL</text>
    <line x1="302" y1="611" x2="488" y2="611" stroke="#2e2e2e" stroke-width="0.5"/>
    <text x="304" y="625" font-size="10" fill="#C9A84C">🔗</text>
    <text x="316" y="625" font-size="10" fill="#e0b06a">usuario_id</text>
    <text x="490" y="625" font-size="9" fill="#555" text-anchor="end">INT FK NULL</text>
    <line x1="302" y1="630" x2="488" y2="630" stroke="#2e2e2e" stroke-width="0.5"/>
    <text x="304" y="644" font-size="10" fill="#7A7470">criado_em</text>
    <text x="490" y="644" font-size="9" fill="#555" text-anchor="end">TIMESTAMP</text>
    <text x="395" y="672" text-anchor="middle" font-size="8" fill="#3a2a08">Pend·Conf·Canc·Conc | online·interno</text>
    <text x="395" y="682" text-anchor="middle" font-size="8" fill="#3a2a08">SET NULL on delete</text>
  </g>

  <!-- ═══════════════════════════════════════
       TABELA: pedidos (centro-baixo)
  ═══════════════════════════════════════ -->
  <g filter="url(#shadow)">
    <rect x="560" y="420" width="210" height="270" rx="10" fill="#1a1a1a" stroke="#C0504A" stroke-width="1.5"/>
    <rect x="560" y="420" width="210" height="36" rx="10" fill="#1e0e0e"/>
    <rect x="560" y="443" width="210" height="13" fill="#1e0e0e"/>
    <text x="665" y="443" text-anchor="middle" font-size="13" font-weight="700" fill="#e88882">pedidos</text>
    <line x1="560" y1="456" x2="770" y2="456" stroke="#C0504A" stroke-width="0.8" opacity="0.5"/>
    <text x="574" y="473" font-size="10" fill="#C9A84C">🔑</text>
    <text x="586" y="473" font-size="10" fill="#e0b06a">id</text>
    <text x="758" y="473" font-size="9" fill="#555" text-anchor="end">INT PK AI</text>
    <line x1="572" y1="478" x2="758" y2="478" stroke="#2e2e2e" stroke-width="0.5"/>
    <text x="574" y="492" font-size="10" fill="#C9A84C">🔗</text>
    <text x="586" y="492" font-size="10" fill="#e0b06a">cliente_id</text>
    <text x="758" y="492" font-size="9" fill="#555" text-anchor="end">INT FK</text>
    <line x1="572" y1="497" x2="758" y2="497" stroke="#2e2e2e" stroke-width="0.5"/>
    <text x="574" y="511" font-size="10" fill="#C9A84C">🔗</text>
    <text x="586" y="511" font-size="10" fill="#e0b06a">usuario_id</text>
    <text x="758" y="511" font-size="9" fill="#555" text-anchor="end">INT FK</text>
    <line x1="572" y1="516" x2="758" y2="516" stroke="#2e2e2e" stroke-width="0.5"/>
    <text x="574" y="530" font-size="10" fill="#C9A84C">🔗</text>
    <text x="586" y="530" font-size="10" fill="#e0b06a">reserva_id</text>
    <text x="758" y="530" font-size="9" fill="#555" text-anchor="end">INT FK NULL</text>
    <line x1="572" y1="535" x2="758" y2="535" stroke="#2e2e2e" stroke-width="0.5"/>
    <text x="574" y="549" font-size="10" fill="#C8BFA8">status</text>
    <text x="758" y="549" font-size="9" fill="#555" text-anchor="end">ENUM</text>
    <line x1="572" y1="554" x2="758" y2="554" stroke="#2e2e2e" stroke-width="0.5"/>
    <text x="574" y="568" font-size="10" fill="#C8BFA8">observacao</text>
    <text x="758" y="568" font-size="9" fill="#555" text-anchor="end">TEXT</text>
    <line x1="572" y1="573" x2="758" y2="573" stroke="#2e2e2e" stroke-width="0.5"/>
    <text x="574" y="587" font-size="10" fill="#C8BFA8">total</text>
    <text x="758" y="587" font-size="9" fill="#555" text-anchor="end">DECIMAL(10,2)</text>
    <line x1="572" y1="592" x2="758" y2="592" stroke="#2e2e2e" stroke-width="0.5"/>
    <text x="574" y="606" font-size="10" fill="#7A7470">criado_em</text>
    <text x="758" y="606" font-size="9" fill="#555" text-anchor="end">TIMESTAMP</text>
    <text x="665" y="658" text-anchor="middle" font-size="8" fill="#3a1010">Aguardando·Em preparo·Pronto</text>
    <text x="665" y="668" text-anchor="middle" font-size="8" fill="#3a1010">Entregue·Cancelado</text>
    <text x="665" y="678" text-anchor="middle" font-size="8" fill="#3a1010">RESTRICT(cli,usr) · SET NULL(res)</text>
  </g>

  <!-- ═══════════════════════════════════════
       TABELA: itens_pedido (baixo direita)
  ═══════════════════════════════════════ -->
  <g filter="url(#shadow)">
    <rect x="820" y="520" width="185" height="215" rx="10" fill="#1a1a1a" stroke="#7B5EA7" stroke-width="1.5"/>
    <rect x="820" y="520" width="185" height="36" rx="10" fill="#160e22"/>
    <rect x="820" y="543" width="185" height="13" fill="#160e22"/>
    <text x="912" y="543" text-anchor="middle" font-size="13" font-weight="700" fill="#b89fd4">itens_pedido</text>
    <line x1="820" y1="556" x2="1005" y2="556" stroke="#7B5EA7" stroke-width="0.8" opacity="0.5"/>
    <text x="834" y="573" font-size="10" fill="#C9A84C">🔑</text>
    <text x="846" y="573" font-size="10" fill="#e0b06a">id</text>
    <text x="995" y="573" font-size="9" fill="#555" text-anchor="end">INT PK AI</text>
    <line x1="832" y1="578" x2="993" y2="578" stroke="#2e2e2e" stroke-width="0.5"/>
    <text x="834" y="592" font-size="10" fill="#C9A84C">🔗</text>
    <text x="846" y="592" font-size="10" fill="#e0b06a">pedido_id</text>
    <text x="995" y="592" font-size="9" fill="#555" text-anchor="end">INT FK</text>
    <line x1="832" y1="597" x2="993" y2="597" stroke="#2e2e2e" stroke-width="0.5"/>
    <text x="834" y="611" font-size="10" fill="#C9A84C">🔗</text>
    <text x="846" y="611" font-size="10" fill="#e0b06a">prato_id</text>
    <text x="995" y="611" font-size="9" fill="#555" text-anchor="end">INT FK</text>
    <line x1="832" y1="616" x2="993" y2="616" stroke="#2e2e2e" stroke-width="0.5"/>
    <text x="834" y="630" font-size="10" fill="#C8BFA8">quantidade</text>
    <text x="995" y="630" font-size="9" fill="#555" text-anchor="end">SMALLINT</text>
    <line x1="832" y1="635" x2="993" y2="635" stroke="#2e2e2e" stroke-width="0.5"/>
    <text x="834" y="649" font-size="10" fill="#C8BFA8">preco_unit</text>
    <text x="995" y="649" font-size="9" fill="#555" text-anchor="end">DECIMAL(10,2)</text>
    <line x1="832" y1="654" x2="993" y2="654" stroke="#2e2e2e" stroke-width="0.5"/>
    <text x="834" y="668" font-size="10" fill="#7A7470">subtotal</text>
    <text x="995" y="668" font-size="9" fill="#555" text-anchor="end">DECIMAL GENERATED</text>
    <line x1="832" y1="673" x2="993" y2="673" stroke="#2e2e2e" stroke-width="0.5"/>
    <text x="912" y="700" text-anchor="middle" font-size="8" fill="#2e1e40">CASCADE(pedido) · RESTRICT(prato)</text>
    <text x="912" y="712" text-anchor="middle" font-size="8" fill="#2e1e40">subtotal = qtd × preco_unit (STORED)</text>
  </g>

  <!-- ═══════════════════════════════════════
       RELACIONAMENTOS (linhas)
  ═══════════════════════════════════════ -->

  <!-- categorias_prato → pratos (1:N) -->
  <line x1="912" y1="190" x2="912" y2="230" stroke="#4A7C59" stroke-width="1.5" stroke-dasharray="4,3" marker-end="url(#arrow)"/>
  <text x="920" y="212" font-size="9" fill="#4A7C59">1:N</text>

  <!-- usuarios → reservas (1:N via usuario_id) -->
  <path d="M 130 295 L 130 740 Q 130 760 150 760 L 290 760 L 290 625" stroke="#C9A84C" stroke-width="1.2" stroke-dasharray="5,3" fill="none" marker-end="url(#arrow-null)"/>
  <text x="140" y="580" font-size="9" fill="#C9A84C">1:N</text>

  <!-- usuarios → pedidos (1:N via usuario_id) -->
  <path d="M 230 188 L 255 188 L 255 780 Q 255 800 275 800 L 545 800 L 545 511 L 560 511" stroke="#C9A84C" stroke-width="1.2" stroke-dasharray="5,3" fill="none" marker-end="url(#arrow)"/>
  <text x="390" y="795" font-size="9" fill="#C9A84C">1:N</text>

  <!-- clientes → reservas (1:N via cliente_id) -->
  <line x1="395" y1="350" x2="395" y2="420" stroke="#3D6B8E" stroke-width="1.5" stroke-dasharray="4,3" marker-end="url(#arrow-null)"/>
  <text x="403" y="388" font-size="9" fill="#3D6B8E">1:N</text>

  <!-- clientes → pedidos (1:N via cliente_id) -->
  <path d="M 500 200 L 540 200 L 540 492 L 560 492" stroke="#3D6B8E" stroke-width="1.5" stroke-dasharray="4,3" fill="none" marker-end="url(#arrow)"/>
  <text x="548" y="350" font-size="9" fill="#3D6B8E">1:N</text>

  <!-- reservas → pedidos (1:N via reserva_id) -->
  <line x1="500" y1="530" x2="560" y2="530" stroke="#C9913A" stroke-width="1.5" stroke-dasharray="4,3" marker-end="url(#arrow-null)"/>
  <text x="518" y="523" font-size="9" fill="#C9913A">1:N</text>

  <!-- pedidos → itens_pedido (1:N via pedido_id) -->
  <path d="M 770 560 L 800 560 L 800 573 L 820 573" stroke="#7B5EA7" stroke-width="1.5" stroke-dasharray="4,3" fill="none" marker-end="url(#arrow)"/>
  <text x="780" y="554" font-size="9" fill="#7B5EA7">1:N</text>

  <!-- pratos → itens_pedido (1:N via prato_id) -->
  <line x1="912" y1="465" x2="912" y2="520" stroke="#4A7C59" stroke-width="1.5" stroke-dasharray="4,3" marker-end="url(#arrow)"/>
  <text x="920" y="496" font-size="9" fill="#4A7C59">1:N</text>

  <!-- ═══════════════════════════════════════
       LEGENDA
  ═══════════════════════════════════════ -->
  <rect x="30" y="740" width="230" height="65" rx="8" fill="#141414" stroke="#2e2e2e" stroke-width="1"/>
  <text x="145" y="757" text-anchor="middle" font-size="10" fill="#7A7470" font-weight="600" letter-spacing="1">LEGENDA</text>
  <line x1="40" y1="762" x2="252" y2="762" stroke="#2e2e2e" stroke-width="0.5"/>
  <text x="50" y="776" font-size="10" fill="#e0b06a">🔑</text>
  <text x="64" y="776" font-size="9" fill="#C8BFA8">Chave Primária (PK)</text>
  <text x="160" y="776" font-size="10" fill="#e0b06a">🔗</text>
  <text x="174" y="776" font-size="9" fill="#C8BFA8">Chave Estrangeira (FK)</text>
  <line x1="50" y1="782" x2="62" y2="782" stroke="#C9A84C" stroke-width="1.5" stroke-dasharray="4,2" marker-end="url(#arrow)"/>
  <text x="68" y="785" font-size="9" fill="#C8BFA8">Relação obrigatória (RESTRICT)</text>
  <line x1="50" y1="797" x2="62" y2="797" stroke="#7A7470" stroke-width="1.5" stroke-dasharray="4,2" marker-end="url(#arrow-null)"/>
  <text x="68" y="800" font-size="9" fill="#C8BFA8">Relação opcional (SET NULL)</text>

  <!-- Versão -->
  <text x="1180" y="812" text-anchor="end" font-size="8" fill="#3a3a3a">Margôr © 2026</text>
</svg>
